<?xml version="1.0" standalone="no"?>
<!DOCTYPE svg PUBLIC "-//W3C//DTD SVG 20010904//EN"
 "http://www.w3.org/TR/2001/REC-SVG-20010904/DTD/svg10.dtd">
<svg version="1.0" xmlns="http://www.w3.org/2000/svg"
 width="700.000000pt" height="700.000000pt" viewBox="0 0 700.000000 700.000000"
 preserveAspectRatio="xMidYMid meet">
<metadata>
Created by potrace 1.14, written by Peter Selinger 2001-2017
</metadata>
<g transform="translate(0.000000,700.000000) scale(0.100000,-0.100000)"
fill="#000000" stroke="none">
<path d="M4996 6563 c-1 -1 -37 -4 -81 -7 -540 -34 -1034 -376 -1269 -877 -66
-142 -99 -250 -133 -439 -3 -19 -7 -174 -7 -345 -2 -281 -4 -317 -23 -385 -12
-41 -30 -94 -40 -117 l-19 -42 -509 509 -508 508 -1 184 c-2 265 1 260 -257
414 -79 48 -157 94 -174 104 -16 9 -73 43 -125 75 -52 32 -104 63 -115 69 -11
6 -143 85 -293 175 -400 241 -366 245 -710 -97 -130 -131 -248 -252 -261 -270
-30 -43 -40 -141 -18 -192 18 -43 659 -1112 694 -1159 49 -63 94 -75 301 -76
l183 -1 482 -482 c477 -477 482 -483 461 -500 -65 -51 -460 -377 -464 -382 -3
-3 -54 -46 -115 -95 -60 -49 -137 -112 -170 -140 -33 -27 -107 -88 -164 -135
-95 -78 -338 -278 -386 -318 -11 -9 -45 -37 -75 -62 -30 -25 -64 -53 -75 -62
-11 -9 -90 -73 -175 -143 -253 -206 -333 -293 -406 -437 -34 -68 -78 -188 -89
-243 -6 -31 -18 -165 -18 -200 -2 -239 103 -493 278 -671 143 -146 342 -246
555 -280 123 -19 341 3 445 45 212 86 347 189 495 381 19 25 37 47 40 50 4 3
37 43 75 90 38 47 116 141 173 210 155 188 225 273 242 294 8 10 29 35 45 55
17 20 105 126 195 236 91 110 172 209 181 220 10 11 52 63 96 116 43 52 81 97
86 100 4 2 362 -350 795 -782 433 -432 812 -804 842 -827 167 -123 365 -188
581 -190 63 0 139 4 169 9 409 74 723 375 810 777 26 119 21 333 -9 446 -37
140 -108 281 -191 381 -13 17 -342 349 -730 738 -388 389 -706 709 -707 710
-1 1 58 2 130 2 168 0 244 10 417 54 158 40 391 159 530 270 54 43 193 180
239 236 85 103 189 282 239 410 24 63 69 219 76 265 3 19 8 45 10 57 22 108
22 366 0 476 -2 12 -7 36 -10 52 -22 126 -94 323 -138 382 -37 49 -82 73 -153
80 -99 10 -112 0 -592 -482 -239 -239 -440 -435 -446 -435 -17 0 -122 65 -164
101 -53 46 -117 127 -149 186 l-27 53 451 452 c475 478 474 476 474 564 0 89
-58 170 -149 210 -100 44 -271 93 -386 109 -72 11 -254 23 -259 18z m129 -442
c28 -1 2 -29 -332 -363 -245 -246 -367 -375 -378 -400 -33 -81 -7 -207 80
-383 91 -183 227 -330 411 -442 124 -75 304 -140 379 -135 79 6 92 16 468 390
361 360 367 366 368 332 8 -196 -16 -364 -70 -485 -5 -11 -20 -45 -34 -76 -62
-140 -228 -336 -364 -428 -130 -87 -308 -159 -438 -177 -27 -3 -59 -8 -70 -10
-11 -3 -67 -3 -125 -3 -342 6 -411 4 -535 -16 -73 -11 -205 -55 -290 -96 -159
-76 -226 -134 -386 -330 -20 -24 -72 -87 -115 -139 -43 -52 -177 -214 -297
-360 -120 -146 -226 -274 -235 -285 -9 -11 -37 -45 -62 -75 -25 -30 -47 -57
-50 -60 -3 -3 -21 -25 -40 -50 -19 -25 -37 -47 -40 -50 -4 -3 -62 -72 -129
-155 -67 -82 -141 -172 -164 -199 -23 -27 -64 -78 -92 -112 -45 -55 -211 -257
-583 -709 -68 -82 -142 -172 -165 -199 -23 -27 -45 -55 -50 -62 -12 -20 -127
-104 -166 -121 -76 -32 -112 -41 -199 -47 -236 -16 -470 157 -532 393 -31 117
-13 258 47 373 41 78 93 134 229 243 54 44 101 82 104 85 3 3 30 25 60 50 30
25 57 47 60 50 3 3 145 120 315 260 171 139 312 256 315 259 3 3 41 35 85 71
44 35 82 67 85 70 3 3 52 44 110 90 58 46 116 94 130 106 28 24 253 210 320
264 328 265 878 725 923 772 109 114 188 263 231 434 40 158 44 218 37 629 -1
55 1 111 3 125 3 14 7 46 11 72 8 65 57 212 98 296 53 107 112 188 207 283
141 144 311 240 510 290 117 29 197 36 355 30z m-3532 -331 l376 -225 1 -159
c0 -89 5 -177 12 -200 10 -35 90 -120 567 -599 l556 -558 -30 -25 c-16 -14
-55 -45 -86 -69 l-56 -44 -539 540 c-380 380 -551 545 -581 559 -37 17 -64 20
-210 20 l-168 0 -27 48 c-37 63 -50 85 -238 397 -89 149 -170 284 -180 300 -9
17 -26 45 -38 64 l-20 33 96 98 97 98 46 -27 c25 -14 215 -127 422 -251z
m3603 -3202 c898 -901 871 -871 909 -1018 78 -304 -115 -617 -420 -680 -139
-29 -269 -8 -395 62 -41 23 -253 228 -859 834 l-805 802 26 34 c14 18 34 42
44 53 11 11 57 68 104 125 46 58 89 110 95 116 5 7 26 31 45 55 53 64 237 288
278 338 40 47 118 111 136 111 6 0 385 -375 842 -832z"/>
<path d="M1355 1633 c-40 -11 -103 -66 -128 -111 -20 -37 -24 -59 -23 -107 4
-120 82 -201 202 -210 92 -7 168 36 209 118 71 143 -25 306 -183 313 -31 2
-66 0 -77 -3z"/>
<path d="M4537 2615 c-48 -12 -66 -23 -106 -64 -53 -56 -70 -163 -36 -235 20
-41 820 -848 864 -870 115 -60 266 4 305 128 20 62 16 111 -13 167 -25 47
-821 842 -864 862 -46 22 -95 26 -150 12z"/>
</g>
</svg>
